<svg xmlns="http://www.w3.org/2000/svg" viewBox="0 0 256 256">
  <defs>
    <linearGradient id="bg" x1="24" y1="16" x2="232" y2="240" gradientUnits="userSpaceOnUse">
      <stop stop-color="#ffffff"/>
      <stop offset=".62" stop-color="#fff3f3"/>
      <stop offset="1" stop-color="#f05d5d"/>
    </linearGradient>
  </defs>
  <rect width="256" height="256" rx="52" fill="url(#bg)"/>
  <path d="M52 82c36 4 61 23 74 56-35-4-66-20-98-47 7-5 15-8 24-9Z" fill="#fff" stroke="#b90000" stroke-width="5"/>
  <path d="M204 82c-36 4-61 23-74 56 35-4 66-20 98-47-7-5-15-8-24-9Z" fill="#fff" stroke="#b90000" stroke-width="5"/>
  <ellipse cx="128" cy="57" rx="48" ry="14" fill="none" stroke="#b90000" stroke-width="8" stroke-dasharray="4 7"/>
  <circle cx="128" cy="137" r="66" fill="#fffafa" stroke="#b90000" stroke-width="9"/>
  <circle cx="108" cy="116" r="13" fill="#fff" opacity=".9"/>
  <path d="M95 169h66" stroke="#b90000" stroke-width="9" stroke-linecap="round"/>
  <path d="M179 117l5 10 10 5-10 5-5 10-5-10-10-5 10-5z" fill="#b90000"/>
</svg>
